<svg width="66" height="66" viewBox="0 0 66 66" fill="none" xmlns="http://www.w3.org/2000/svg">
<path d="M60.8667 66L37.7667 42.9C35.9333 44.3667 33.825 45.5278 31.4417 46.3833C29.0583 47.2389 26.5222 47.6667 23.8333 47.6667C17.1722 47.6667 11.5353 45.3591 6.92267 40.744C2.31 36.1289 0.00244444 30.492 0 23.8333C0 17.1722 2.30756 11.5353 6.92267 6.92267C11.5378 2.31 17.1747 0.00244444 23.8333 0C30.4944 0 36.1313 2.30756 40.744 6.92267C45.3567 11.5378 47.6642 17.1747 47.6667 23.8333C47.6667 26.5222 47.2389 29.0583 46.3833 31.4417C45.5278 33.825 44.3667 35.9333 42.9 37.7667L66 60.8667L60.8667 66ZM23.8333 40.3333C28.4167 40.3333 32.3131 38.7286 35.5227 35.519C38.7322 32.3094 40.3358 28.4142 40.3333 23.8333C40.3333 19.25 38.7286 15.3536 35.519 12.144C32.3094 8.93444 28.4142 7.33089 23.8333 7.33333C19.25 7.33333 15.3536 8.93811 12.144 12.1477C8.93444 15.3572 7.33089 19.2524 7.33333 23.8333C7.33333 28.4167 8.93811 32.3131 12.1477 35.5227C15.3572 38.7322 19.2524 40.3358 23.8333 40.3333Z" fill="white"/>
</svg>
